<svg width="31" height="30" viewBox="0 0 31 30" fill="none" xmlns="http://www.w3.org/2000/svg">
<path d="M13.114 6.82681C13.1797 6.95221 13.2232 7.08651 13.2426 7.22458L13.6023 12.2328L13.7808 14.75C13.7827 15.0089 13.826 15.2661 13.9095 15.5133C14.1251 15.993 14.6438 16.2978 15.2081 16.2766L23.8071 15.7498C24.1795 15.7441 24.5391 15.8745 24.8067 16.1124C25.0298 16.3107 25.1738 16.57 25.2192 16.849L25.2344 17.0184C24.8786 21.6331 21.2597 25.4822 16.3426 26.4758C11.4255 27.4694 6.38322 25.3705 3.9534 21.3186C3.2529 20.1415 2.81536 18.8476 2.66647 17.5129C2.60427 17.1178 2.57689 16.7187 2.58458 16.3196C2.5769 11.372 6.3388 7.09468 11.6047 6.06351C12.2385 5.97109 12.8598 6.28532 13.114 6.82681Z" fill="#97A5EB"/>
<path opacity="0.4" d="M16.6237 2.52656C22.5135 2.6669 27.4638 6.63356 28.4166 11.9763L28.4075 12.0158L28.3815 12.0731L28.3851 12.2305C28.3716 12.439 28.2857 12.6396 28.1376 12.8016C27.9833 12.9704 27.7725 13.0853 27.5403 13.13L27.3988 13.1482L17.4778 13.7502C17.1478 13.7807 16.8192 13.681 16.5738 13.476C16.3693 13.3052 16.2385 13.0745 16.2016 12.826L15.5357 3.54787C15.5241 3.5165 15.5241 3.48249 15.5357 3.45112C15.5448 3.19537 15.665 2.95362 15.8694 2.7799C16.0739 2.60617 16.3455 2.51493 16.6237 2.52656Z" fill="#FFCC91"/>
</svg>
