<svg width="972" height="476" viewBox="0 0 972 476" fill="none" xmlns="http://www.w3.org/2000/svg">
<path d="M303.8 223.24H318.24V226.68H303.8V223.24ZM304.2 238H300.2V210H319.96V213.48H304.2V238ZM354.887 238.24C353.073 238.24 351.473 237.907 350.087 237.24C348.727 236.573 347.66 235.56 346.887 234.2C346.14 232.813 345.767 231.08 345.767 229V216.8H349.607V228.56C349.607 230.64 350.1 232.2 351.087 233.24C352.1 234.28 353.513 234.8 355.327 234.8C356.66 234.8 357.82 234.533 358.807 234C359.793 233.44 360.553 232.64 361.087 231.6C361.62 230.533 361.887 229.253 361.887 227.76V216.8H365.727V238H362.087V232.28L362.687 233.8C361.993 235.213 360.953 236.307 359.567 237.08C358.18 237.853 356.62 238.24 354.887 238.24ZM405.957 216.6C407.69 216.6 409.21 216.933 410.517 217.6C411.85 218.267 412.89 219.28 413.637 220.64C414.384 222 414.757 223.72 414.757 225.8V238H410.917V226.24C410.917 224.187 410.41 222.64 409.397 221.6C408.41 220.56 407.01 220.04 405.197 220.04C403.837 220.04 402.65 220.307 401.637 220.84C400.624 221.373 399.837 222.16 399.277 223.2C398.744 224.24 398.477 225.533 398.477 227.08V238H394.637V216.8H398.317V222.52L397.717 221C398.41 219.613 399.477 218.533 400.917 217.76C402.357 216.987 404.037 216.6 405.957 216.6ZM452.223 238.24C450.17 238.24 448.33 237.787 446.703 236.88C445.103 235.973 443.837 234.707 442.903 233.08C441.97 231.453 441.503 229.56 441.503 227.4C441.503 225.24 441.97 223.36 442.903 221.76C443.837 220.133 445.103 218.867 446.703 217.96C448.33 217.053 450.17 216.6 452.223 216.6C454.01 216.6 455.623 217 457.063 217.8C458.503 218.6 459.65 219.8 460.503 221.4C461.383 223 461.823 225 461.823 227.4C461.823 229.8 461.397 231.8 460.543 233.4C459.717 235 458.583 236.213 457.143 237.04C455.703 237.84 454.063 238.24 452.223 238.24ZM452.543 234.88C453.877 234.88 455.077 234.573 456.143 233.96C457.237 233.347 458.09 232.48 458.703 231.36C459.343 230.213 459.663 228.893 459.663 227.4C459.663 225.88 459.343 224.573 458.703 223.48C458.09 222.36 457.237 221.493 456.143 220.88C455.077 220.267 453.877 219.96 452.543 219.96C451.183 219.96 449.97 220.267 448.903 220.88C447.837 221.493 446.983 222.36 446.343 223.48C445.703 224.573 445.383 225.88 445.383 227.4C445.383 228.893 445.703 230.213 446.343 231.36C446.983 232.48 447.837 233.347 448.903 233.96C449.97 234.573 451.183 234.88 452.543 234.88ZM459.783 238V232.28L460.023 227.36L459.623 222.44V208.32H463.463V238H459.783ZM505.489 238V233.52L505.289 232.68V225.04C505.289 223.413 504.809 222.16 503.849 221.28C502.916 220.373 501.502 219.92 499.609 219.92C498.356 219.92 497.129 220.133 495.929 220.56C494.729 220.96 493.716 221.507 492.889 222.2L491.289 219.32C492.382 218.44 493.689 217.773 495.209 217.32C496.756 216.84 498.369 216.6 500.049 216.6C502.956 216.6 505.196 217.307 506.769 218.72C508.342 220.133 509.129 222.293 509.129 225.2V238H505.489ZM498.529 238.24C496.956 238.24 495.569 237.973 494.369 237.44C493.196 236.907 492.289 236.173 491.649 235.24C491.009 234.28 490.689 233.2 490.689 232C490.689 230.853 490.956 229.813 491.489 228.88C492.049 227.947 492.942 227.2 494.169 226.64C495.422 226.08 497.102 225.8 499.209 225.8H505.929V228.56H499.369C497.449 228.56 496.156 228.88 495.489 229.52C494.822 230.16 494.489 230.933 494.489 231.84C494.489 232.88 494.902 233.72 495.729 234.36C496.556 234.973 497.702 235.28 499.169 235.28C500.609 235.28 501.862 234.96 502.929 234.32C504.022 233.68 504.809 232.747 505.289 231.52L506.049 234.16C505.542 235.413 504.649 236.413 503.369 237.16C502.089 237.88 500.476 238.24 498.529 238.24ZM547.075 238.24C544.915 238.24 542.982 237.773 541.275 236.84C539.595 235.907 538.275 234.627 537.315 233C536.355 231.373 535.875 229.507 535.875 227.4C535.875 225.293 536.355 223.427 537.315 221.8C538.275 220.173 539.595 218.907 541.275 218C542.982 217.067 544.915 216.6 547.075 216.6C548.995 216.6 550.702 216.987 552.195 217.76C553.715 218.507 554.889 219.627 555.715 221.12L552.795 223C552.102 221.96 551.249 221.2 550.235 220.72C549.249 220.213 548.182 219.96 547.035 219.96C545.649 219.96 544.409 220.267 543.315 220.88C542.222 221.493 541.355 222.36 540.715 223.48C540.075 224.573 539.755 225.88 539.755 227.4C539.755 228.92 540.075 230.24 540.715 231.36C541.355 232.48 542.222 233.347 543.315 233.96C544.409 234.573 545.649 234.88 547.035 234.88C548.182 234.88 549.249 234.64 550.235 234.16C551.249 233.653 552.102 232.88 552.795 231.84L555.715 233.68C554.889 235.147 553.715 236.28 552.195 237.08C550.702 237.853 548.995 238.24 547.075 238.24ZM582.013 238V216.8H585.853V238H582.013ZM583.933 212.72C583.187 212.72 582.56 212.48 582.053 212C581.573 211.52 581.333 210.933 581.333 210.24C581.333 209.52 581.573 208.92 582.053 208.44C582.56 207.96 583.187 207.72 583.933 207.72C584.68 207.72 585.293 207.96 585.773 208.44C586.28 208.893 586.533 209.467 586.533 210.16C586.533 210.88 586.293 211.493 585.813 212C585.333 212.48 584.707 212.72 583.933 212.72ZM623.865 238.24C621.732 238.24 619.839 237.773 618.185 236.84C616.532 235.907 615.225 234.627 614.265 233C613.305 231.347 612.825 229.48 612.825 227.4C612.825 225.293 613.305 223.427 614.265 221.8C615.225 220.173 616.532 218.907 618.185 218C619.839 217.067 621.732 216.6 623.865 216.6C625.972 216.6 627.852 217.067 629.505 218C631.185 218.907 632.492 220.173 633.425 221.8C634.385 223.4 634.865 225.267 634.865 227.4C634.865 229.507 634.385 231.373 633.425 233C632.492 234.627 631.185 235.907 629.505 236.84C627.852 237.773 625.972 238.24 623.865 238.24ZM623.865 234.88C625.225 234.88 626.439 234.573 627.505 233.96C628.599 233.347 629.452 232.48 630.065 231.36C630.679 230.213 630.985 228.893 630.985 227.4C630.985 225.88 630.679 224.573 630.065 223.48C629.452 222.36 628.599 221.493 627.505 220.88C626.439 220.267 625.225 219.96 623.865 219.96C622.505 219.96 621.292 220.267 620.225 220.88C619.159 221.493 618.305 222.36 617.665 223.48C617.025 224.573 616.705 225.88 616.705 227.4C616.705 228.893 617.025 230.213 617.665 231.36C618.305 232.48 619.159 233.347 620.225 233.96C621.292 234.573 622.505 234.88 623.865 234.88ZM620.825 213.72L626.265 208.52H631.145L624.425 213.72H620.825ZM673.096 216.6C674.829 216.6 676.349 216.933 677.656 217.6C678.989 218.267 680.029 219.28 680.776 220.64C681.523 222 681.896 223.72 681.896 225.8V238H678.056V226.24C678.056 224.187 677.549 222.64 676.536 221.6C675.549 220.56 674.149 220.04 672.336 220.04C670.976 220.04 669.789 220.307 668.776 220.84C667.763 221.373 666.976 222.16 666.416 223.2C665.883 224.24 665.616 225.533 665.616 227.08V238H661.776V216.8H665.456V222.52L664.856 221C665.549 219.613 666.616 218.533 668.056 217.76C669.496 216.987 671.176 216.6 673.096 216.6Z" fill="#397E67"/>
<path d="M6.81059 476H6.12953C2.72423 475.299 0 471.794 0 468.289C3.40529 434.642 25.8802 363.141 49.7173 290.238C49.0362 290.238 46.993 289.537 46.312 288.135C38.8203 288.135 31.3287 287.434 25.8802 286.733C11.578 283.929 2.72423 279.022 0.681059 271.312C-0.681059 267.807 1.36212 263.601 4.76741 262.9C8.1727 261.498 12.2591 263.601 13.6212 267.106C14.3022 268.508 20.4318 272.714 38.8203 273.415C43.5877 274.116 49.7173 274.116 55.8468 273.415L70.149 231.355C83.7702 192.1 96.7103 154.948 105.564 125.506C117.142 89.0547 118.504 77.8389 118.504 73.633C117.142 72.231 117.142 69.4271 117.823 67.3241C118.504 63.8192 122.591 61.7162 125.996 63.1182C128.039 63.8192 130.082 65.2211 130.763 67.3241C133.487 72.231 134.169 79.9419 119.866 126.908C110.331 156.35 97.3914 194.904 83.0891 236.262L70.8301 272.013C97.3914 269.209 130.763 261.498 166.178 246.777C205.68 229.953 262.208 197.708 301.028 138.825C335.081 86.9518 326.908 58.2112 313.968 42.7895C280.596 2.13223 175.032 4.23517 88.5376 47.6964C85.1323 49.0984 81.727 47.6964 79.6839 44.1915C78.3217 40.6866 79.6839 36.4806 83.0891 35.0787C125.996 13.348 177.075 0.730231 222.025 0.0292523C269.018 -0.671727 305.795 11.2451 324.184 33.6767C340.529 52.6033 351.426 87.6527 311.925 146.536C269.018 211.728 206.361 246.777 161.411 264.302C136.212 274.116 108.969 281.125 84.4513 284.63C126.677 296.547 198.869 325.288 242.457 405.2C244.5 408.705 243.138 412.911 240.414 415.014C239.052 415.715 237.689 415.715 237.008 415.715C234.284 415.715 232.241 414.313 230.879 412.21C209.085 372.955 177.756 342.111 137.574 320.381C107.607 304.258 78.3217 297.248 63.3384 293.743C38.8203 365.945 16.3454 436.745 13.6212 469.691C12.9401 473.196 10.2159 476 6.81059 476Z" fill="#397E67"/>
<path d="M394.838 324.984C394.111 327.386 389.021 338.192 397.019 337.392C413.017 334.99 435.559 326.585 461.01 312.176C481.37 301.37 496.641 290.964 496.641 290.563C498.822 288.962 503.912 288.562 506.821 290.163C509.73 291.364 510.457 293.765 507.548 295.767C507.548 296.167 492.278 306.573 471.19 317.78C443.558 333.389 420.289 342.195 401.382 344.996C392.656 345.797 388.293 345.397 383.931 342.995C373.023 336.191 380.295 321.382 394.111 299.369L399.928 288.962C393.384 293.765 385.385 300.169 378.84 305.773C348.3 330.588 329.393 345.397 313.396 345.397C302.488 345.397 284.309 342.995 281.401 326.585C279.219 314.578 286.491 300.569 290.127 294.966L300.307 282.158C305.397 277.756 309.76 275.754 314.123 274.954C318.486 274.554 322.122 276.155 322.849 278.156C323.576 280.157 321.395 282.158 317.759 282.959C314.85 283.759 307.578 290.563 301.761 301.77C295.217 312.977 293.762 323.783 296.671 330.187C299.58 335.391 304.67 337.392 313.396 337.392C314.123 337.392 319.213 336.991 334.483 326.585C344.664 319.381 355.571 310.175 366.479 301.37L389.748 283.359C397.019 278.156 403.564 273.753 411.563 275.354C420.289 276.955 417.38 283.759 415.926 286.961C414.471 290.964 410.836 296.167 407.927 301.77C402.837 309.375 397.747 317.78 394.838 324.984Z" fill="#397E67"/>
<path d="M696.082 290.163C698.991 291.764 699.718 294.166 696.809 295.767C694.628 297.768 634.273 339.393 589.916 345.397C587.008 345.797 583.372 345.797 581.19 345.797C575.373 345.797 570.283 344.996 566.647 342.995C557.194 337.792 561.557 326.585 565.193 316.979L568.102 310.575L557.194 316.979C539.015 328.186 510.656 344.996 475.025 345.397C456.846 345.797 453.21 338.993 452.483 336.191C451.755 330.988 456.118 320.181 485.205 299.769C493.204 293.765 502.657 288.162 510.656 283.359C525.199 275.754 529.562 275.354 531.743 274.954C541.197 274.153 549.922 275.754 555.74 279.357C559.376 281.758 565.193 288.162 557.194 298.968C555.74 300.97 551.377 301.77 547.741 300.97C544.105 300.169 541.924 297.768 543.378 295.767C547.741 290.964 547.741 286.561 544.832 284.56C542.651 282.959 539.015 282.559 534.652 282.959C530.289 283.759 513.564 292.565 494.658 306.173C472.116 322.182 466.299 332.189 467.026 335.791C467.753 336.591 467.753 337.392 474.298 337.392C504.111 336.991 529.562 321.782 546.287 311.376C559.376 303.771 567.374 298.968 576.1 300.97C581.19 301.77 584.099 304.972 583.372 309.375L579.736 318.981C578.282 322.983 576.1 327.386 575.373 330.988C574.646 335.791 576.1 336.991 577.555 337.392C578.282 338.192 581.918 338.192 586.281 337.392C602.278 335.391 624.82 326.585 650.271 312.577C670.632 301.37 685.902 290.964 685.902 290.964C688.083 288.962 693.174 288.962 696.082 290.163Z" fill="#397E67"/>
<path d="M800.623 334.99C823.165 347.398 872.612 321.382 888.61 312.176C908.97 301.37 924.241 290.964 924.241 290.563C926.422 288.962 931.513 288.562 934.421 290.163C937.33 291.364 938.057 293.765 935.148 295.767C935.148 296.167 919.878 306.573 898.79 317.78C879.884 328.586 821.711 359.005 790.443 340.594C773.718 330.988 778.081 314.978 780.99 304.572C781.717 302.971 782.444 300.97 782.444 299.369C767.901 300.97 748.267 309.375 726.453 323.383C706.092 336.191 690.822 348.999 690.822 348.999C689.367 350.199 687.186 351 685.004 351C682.096 351 680.641 350.199 679.187 349.399C674.824 346.597 669.734 339.393 677.006 312.577C682.096 294.966 690.822 272.552 703.183 247.737C730.088 193.304 765.719 139.272 796.987 106.052C808.622 93.6441 819.529 84.0382 829.71 77.6344C842.072 69.6295 853.706 65.6271 864.614 66.0273C873.34 66.0273 879.884 68.4288 883.52 72.8315C888.61 79.2353 887.156 90.8423 877.702 107.252C869.704 121.261 856.615 138.471 839.89 157.683C808.622 193.304 767.901 231.728 737.36 253.741C722.817 264.548 714.091 268.95 707.546 270.551C700.275 286.961 695.185 301.37 691.549 313.777C688.64 325.384 687.913 332.589 687.913 337.392C694.457 332.189 703.911 325.384 714.818 318.18C743.905 300.169 767.901 290.964 787.534 290.964C790.443 290.964 792.624 291.764 794.806 292.565C798.442 295.366 797.715 298.968 795.533 305.773C792.624 314.978 788.989 328.186 800.623 334.99ZM717.727 249.739L713.364 257.343C719.181 253.741 727.907 248.138 739.542 238.932C757.721 223.723 779.536 204.111 799.896 183.699C847.162 135.269 874.794 95.245 871.885 79.6356C870.431 74.0322 866.068 74.0322 863.886 74.0322H863.159C857.342 74.0322 839.89 77.6344 810.076 109.654C778.808 142.474 743.905 196.106 717.727 249.739Z" fill="#397E67"/>
<path d="M226.849 395.658C510.237 353.119 696.024 352.476 951.435 372.668C957.332 373.134 959.083 380.947 953.929 383.85L942.648 390.207C941.518 390.843 940.19 391.093 938.904 390.927C679.516 357.351 524.21 371.856 226.849 395.658Z" fill="#397E67"/>
</svg>
